name C:/MyDriveSym/Projects/mobilecap/Data\Session20210820_0002\mocap\ForceDataProcessed\walkingTS1_forces.mot
datacolumns 19
datarows 9
range 0.00000000 0.00400000
endheader 
time	R_ground_force_vx	R_ground_force_vy	R_ground_force_vz	R_ground_force_px	R_ground_force_py	R_ground_force_pz	R_ground_torque_x	R_ground_torque_y	R_ground_torque_z	L_ground_force_vx	L_ground_force_vy	L_ground_force_vz	L_ground_force_px	L_ground_force_py	L_ground_force_pz	L_ground_torque_x	L_ground_torque_y	L_ground_torque_z	
          0.00000000	        -14.17276700	        127.02152000	         -3.02836800	          0.11643800	          0.00600000	         -0.09926800	          0.00000000	          0.12266400	          0.00000000	          0.00000000	          0.00000000	          0.00000000	          0.77593600	          0.00000000	         -0.20661400	          0.00000000	          0.00000000	          0.00000000	
          0.00050000	        -14.31391200	        128.60054000	         -3.02773400	          0.11643800	          0.00600000	         -0.09926800	          0.00000000	          0.12592000	          0.00000000	          0.00000000	          0.00000000	          0.00000000	          0.77593600	          0.00000000	         -0.20661400	          0.00000000	          0.00000000	          0.00000000	
          0.00100000	        -14.45785700	        130.19181200	         -3.02753000	          0.11643800	          0.00600000	         -0.09926800	          0.00000000	          0.12919300	          0.00000000	          0.00000000	          0.00000000	          0.00000000	          0.77593600	          0.00000000	         -0.20661400	          0.00000000	          0.00000000	          0.00000000	
          0.00150000	        -14.60462900	        131.79530200	         -3.02776400	          0.11643800	          0.00600000	         -0.09926800	          0.00000000	          0.13248400	          0.00000000	          0.00000000	          0.00000000	          0.00000000	          0.77593600	          0.00000000	         -0.20661400	          0.00000000	          0.00000000	          0.00000000	
          0.00200000	        -14.75425200	        133.41097700	         -3.02844400	          0.11668600	          0.00600000	         -0.09925700	          0.00000000	          0.13579400	          0.00000000	          0.00000000	          0.00000000	          0.00000000	          0.77593600	          0.00000000	         -0.20661400	          0.00000000	          0.00000000	          0.00000000	
          0.00250000	        -14.90675300	        135.03880100	         -3.02957800	          0.11693200	          0.00600000	         -0.09924500	          0.00000000	          0.13912200	          0.00000000	          0.00000000	          0.00000000	          0.00000000	          0.77593600	          0.00000000	         -0.20661400	          0.00000000	          0.00000000	          0.00000000	
          0.00300000	        -15.06215400	        136.67873400	         -3.03117300	          0.11717600	          0.00600000	         -0.09923300	          0.00000000	          0.14247100	          0.00000000	          0.00000000	          0.00000000	          0.00000000	          0.77593600	          0.00000000	         -0.20661400	          0.00000000	          0.00000000	          0.00000000	
          0.00350000	        -15.22048100	        138.33073600	         -3.03323800	          0.11741800	          0.00600000	         -0.09922000	          0.00000000	          0.14583900	          0.00000000	          0.00000000	          0.00000000	          0.00000000	          0.77593600	          0.00000000	         -0.20661400	          0.00000000	          0.00000000	          0.00000000	
          0.00400000	        -15.38175600	        139.99476600	         -3.03578000	          0.11765700	          0.00600000	         -0.09920800	          0.00000000	          0.14922700	          0.00000000	          0.00000000	          0.00000000	          0.00000000	          0.77593600	          0.00000000	         -0.20661400	          0.00000000	          0.00000000	          0.00000000	
